<?xml version="1.0" standalone="no"?>
<!DOCTYPE svg PUBLIC "-//W3C//DTD SVG 20010904//EN"
 "http://www.w3.org/TR/2001/REC-SVG-20010904/DTD/svg10.dtd">
<svg version="1.0" xmlns="http://www.w3.org/2000/svg"
 width="625.000000pt" height="626.000000pt" viewBox="0 0 625.000000 626.000000"
 preserveAspectRatio="xMidYMid meet">

<g transform="translate(0.000000,626.000000) scale(0.100000,-0.100000)"
fill="currentColor" stroke="none">
<path d="M4020 4872 c-210 -26 -188 -18 -484 -183 -127 -70 -176 -103 -194
-129 -13 -19 -67 -113 -121 -209 -53 -96 -102 -176 -107 -178 -6 -2 -75 94
-155 213 -79 119 -157 227 -174 239 -16 12 -113 67 -215 122 l-185 100 -120
17 c-66 10 -127 18 -136 19 -9 1 -127 -38 -263 -88 l-246 -90 -168 -199 -167
-200 -32 -285 c-18 -157 -32 -302 -33 -322 0 -42 113 -427 138 -467 9 -15 112
-164 227 -332 201 -291 218 -313 401 -505 284 -298 459 -466 554 -532 76 -53
192 -135 489 -346 71 -50 98 -64 110 -57 9 4 55 41 101 82 47 40 139 118 205
173 621 516 809 700 1095 1068 180 231 188 243 302 466 l118 228 22 186 22
186 -23 178 -23 178 -43 55 c-84 110 -172 225 -250 329 -88 116 -72 105 -335
242 l-125 65 -185 -24z"/>
</g>
</svg>
